<svg xmlns="http://www.w3.org/2000/svg" width="1822" height="594" viewBox="-12.0 -12.0 1821.6 594.0">
<rect x="-12.0" y="-12.0" width="1821.6" height="594.0" fill="#ffffff"/>
<rect x="4.0" y="4.0" width="1789.6" height="458.0" rx="4.0" fill="none" stroke="#8a939e" stroke-width="1.5" stroke-linejoin="round" stroke-dasharray="6 4"/>
<text x="16.0" y="25.2" font-family="Ubuntu" font-weight="300" font-size="15" text-anchor="start" fill="#8a939e">HTTP API (whitebox)</text>
<rect x="110.0" y="110.0" width="157.8" height="80.0" rx="4.0" fill="#a8d5f7" stroke="#222222" stroke-width="1.5" stroke-linejoin="round"/>
<text x="188.9" y="148.2" font-family="Ubuntu" font-weight="300" font-size="15" text-anchor="middle" fill="#222222">Provide Endpoints</text>
<text x="188.9" y="165.9" font-family="Ubuntu" font-weight="300" font-size="11" text-anchor="middle" fill="#666666">«component»</text>
<rect x="377.8" y="110.0" width="159.0" height="80.0" rx="4.0" fill="#a8d5f7" stroke="#222222" stroke-width="1.5" stroke-linejoin="round"/>
<text x="457.2" y="148.2" font-family="Ubuntu" font-weight="300" font-size="15" text-anchor="middle" fill="#222222">Require Endpoints</text>
<text x="457.2" y="165.9" font-family="Ubuntu" font-weight="300" font-size="11" text-anchor="middle" fill="#666666">«component»</text>
<rect x="646.7" y="110.0" width="224.5" height="80.0" rx="4.0" fill="#a8d5f7" stroke="#222222" stroke-width="1.5" stroke-linejoin="round"/>
<text x="759.0" y="148.2" font-family="Ubuntu" font-weight="300" font-size="15" text-anchor="middle" fill="#222222">Report &amp; Validate Endpoints</text>
<text x="759.0" y="165.9" font-family="Ubuntu" font-weight="300" font-size="11" text-anchor="middle" fill="#666666">«component»</text>
<rect x="981.3" y="110.0" width="186.1" height="80.0" rx="4.0" fill="#a8d5f7" stroke="#222222" stroke-width="1.5" stroke-linejoin="round"/>
<text x="1074.3" y="148.2" font-family="Ubuntu" font-weight="300" font-size="15" text-anchor="middle" fill="#222222">Live Update Endpoints</text>
<text x="1074.3" y="165.9" font-family="Ubuntu" font-weight="300" font-size="11" text-anchor="middle" fill="#666666">«component»</text>
<rect x="1277.3" y="110.0" width="150.2" height="80.0" rx="4.0" fill="#a8d5f7" stroke="#222222" stroke-width="1.5" stroke-linejoin="round"/>
<text x="1352.5" y="148.2" font-family="Ubuntu" font-weight="300" font-size="15" text-anchor="middle" fill="#222222">Admin Endpoints</text>
<text x="1352.5" y="165.9" font-family="Ubuntu" font-weight="300" font-size="11" text-anchor="middle" fill="#666666">«component»</text>
<rect x="1537.6" y="110.0" width="150.0" height="80.0" rx="4.0" fill="#a8d5f7" stroke="#222222" stroke-width="1.5" stroke-linejoin="round"/>
<text x="1612.6" y="148.2" font-family="Ubuntu" font-weight="300" font-size="15" text-anchor="middle" fill="#222222">Auth Endpoints</text>
<text x="1612.6" y="165.9" font-family="Ubuntu" font-weight="300" font-size="11" text-anchor="middle" fill="#666666">«component»</text>
<rect x="55.0" y="300.0" width="1687.6" height="56.0" rx="4.0" fill="#b8e6a8" stroke="#222222" stroke-width="1.5" stroke-linejoin="round"/>
<text x="898.8" y="326.2" font-family="Ubuntu" font-weight="300" font-size="15" text-anchor="middle" fill="#222222">Request Guards</text>
<text x="898.8" y="343.9" font-family="Ubuntu" font-weight="300" font-size="11" text-anchor="middle" fill="#666666">«component»</text>
<polyline points="110.0,150.0 0.0,150.0" fill="none" stroke="#444b55" stroke-width="1.5" stroke-linejoin="round"/>
<polygon points="110.0,150.0 99.0,155.0 99.0,145.0" fill="#444b55"/>
<rect x="-4.0" y="146.0" width="8.0" height="8.0" rx="0.0" fill="#ffffff" stroke="#8a939e" stroke-width="1.2" stroke-linejoin="round"/>
<polyline points="377.8,150.0 334.8,150.0 332.5,149.9 330.4,149.5 328.6,148.9 327.1,148.1 325.8,147.0 324.7,145.7 323.8,144.1 323.2,142.3 322.9,140.3 322.8,138.0 322.8,47.0 322.6,44.7 322.3,42.7 321.7,40.9 320.8,39.3 319.8,38.0 318.4,36.9 316.9,36.1 315.1,35.5 313.0,35.1 310.8,35.0 63.0,35.0 60.7,35.1 58.7,35.5 56.9,36.1 55.3,36.9 54.0,38.0 52.9,39.3 52.1,40.9 51.5,42.7 51.1,44.7 51.0,47.0 51.0,138.0 50.9,140.3 50.5,142.3 49.9,144.1 49.1,145.7 48.0,147.0 46.7,148.1 45.1,148.9 43.3,149.5 41.3,149.9 39.0,150.0 0.0,150.0" fill="none" stroke="#444b55" stroke-width="1.5" stroke-linejoin="round"/>
<polygon points="377.8,150.0 366.8,155.0 366.8,145.0" fill="#444b55"/>
<rect x="-4.0" y="146.0" width="8.0" height="8.0" rx="0.0" fill="#ffffff" stroke="#8a939e" stroke-width="1.2" stroke-linejoin="round"/>
<polyline points="646.7,150.0 603.7,150.0 601.4,149.9 599.4,149.5 597.6,148.9 596.0,148.1 594.7,147.0 593.6,145.7 592.8,144.1 592.2,142.3 591.8,140.3 591.7,138.0 591.7,55.0 591.6,52.7 591.2,50.7 590.6,48.9 589.8,47.3 588.7,46.0 587.4,44.9 585.8,44.1 584.0,43.5 582.0,43.1 579.7,43.0 71.0,43.0 68.7,43.1 66.7,43.5 64.9,44.1 63.3,44.9 62.0,46.0 60.9,47.3 60.1,48.9 59.5,50.7 59.1,52.7 59.0,55.0 59.0,138.0 58.9,140.3 58.5,142.3 57.9,144.1 57.1,145.7 56.0,147.0 54.7,148.1 53.1,148.9 51.3,149.5 49.3,149.9 47.0,150.0 0.0,150.0" fill="none" stroke="#444b55" stroke-width="1.5" stroke-linejoin="round"/>
<polygon points="646.7,150.0 635.7,155.0 635.7,145.0" fill="#444b55"/>
<rect x="-4.0" y="146.0" width="8.0" height="8.0" rx="0.0" fill="#ffffff" stroke="#8a939e" stroke-width="1.2" stroke-linejoin="round"/>
<polyline points="851.3,110.0 851.3,63.0 851.4,60.7 851.7,58.7 852.3,56.9 853.2,55.3 854.3,54.0 855.6,52.9 857.1,52.1 858.9,51.5 861.0,51.1 863.3,51.0 1187.6,51.0 1189.9,50.9 1191.9,50.5 1193.7,49.9 1195.3,49.1 1196.6,48.0 1197.7,46.7 1198.5,45.1 1199.1,43.3 1199.5,41.3 1199.6,39.0 1199.6,0.0" fill="none" stroke="#444b55" stroke-width="1.5" stroke-linejoin="round"/>
<polygon points="851.3,110.0 846.3,99.0 856.3,99.0" fill="#444b55"/>
<rect x="1195.6" y="-4.0" width="8.0" height="8.0" rx="0.0" fill="#ffffff" stroke="#8a939e" stroke-width="1.2" stroke-linejoin="round"/>
<polyline points="1147.4,110.0 1147.4,71.0 1147.5,68.7 1147.8,66.7 1148.4,64.9 1149.3,63.3 1150.4,62.0 1151.7,60.9 1153.2,60.1 1155.0,59.5 1157.1,59.1 1159.4,59.0 1187.6,59.0 1189.9,58.9 1191.9,58.5 1193.7,57.9 1195.3,57.1 1196.6,56.0 1197.7,54.7 1198.5,53.1 1199.1,51.3 1199.5,49.3 1199.6,47.0 1199.6,0.0" fill="none" stroke="#444b55" stroke-width="1.5" stroke-linejoin="round"/>
<polygon points="1147.4,110.0 1142.4,99.0 1152.4,99.0" fill="#444b55"/>
<rect x="1195.6" y="-4.0" width="8.0" height="8.0" rx="0.0" fill="#ffffff" stroke="#8a939e" stroke-width="1.2" stroke-linejoin="round"/>
<polyline points="1297.3,110.0 1297.3,87.0 1297.2,84.7 1296.9,82.7 1296.3,80.9 1295.4,79.3 1294.3,78.0 1293.0,76.9 1291.5,76.1 1289.7,75.5 1287.6,75.1 1285.3,75.0 1211.6,75.0 1209.3,74.9 1207.3,74.5 1205.5,73.9 1203.9,73.1 1202.6,72.0 1201.5,70.7 1200.7,69.1 1200.1,67.3 1199.7,65.3 1199.6,63.0 1199.6,0.0" fill="none" stroke="#444b55" stroke-width="1.5" stroke-linejoin="round"/>
<polygon points="1297.3,110.0 1292.3,99.0 1302.3,99.0" fill="#444b55"/>
<rect x="1195.6" y="-4.0" width="8.0" height="8.0" rx="0.0" fill="#ffffff" stroke="#8a939e" stroke-width="1.2" stroke-linejoin="round"/>
<polyline points="1557.6,110.0 1557.6,79.0 1557.4,76.7 1557.1,74.7 1556.5,72.9 1555.6,71.3 1554.6,70.0 1553.2,68.9 1551.7,68.1 1549.9,67.5 1547.8,67.1 1545.6,67.0 1211.6,67.0 1209.3,66.9 1207.3,66.5 1205.5,65.9 1203.9,65.1 1202.6,64.0 1201.5,62.7 1200.7,61.1 1200.1,59.3 1199.7,57.3 1199.6,55.0 1199.6,0.0" fill="none" stroke="#444b55" stroke-width="1.5" stroke-linejoin="round"/>
<polygon points="1557.6,110.0 1552.6,99.0 1562.6,99.0" fill="#444b55"/>
<rect x="1195.6" y="-4.0" width="8.0" height="8.0" rx="0.0" fill="#ffffff" stroke="#8a939e" stroke-width="1.2" stroke-linejoin="round"/>
<polyline points="247.8,190.0 247.8,229.0 247.9,231.3 248.2,233.3 248.8,235.1 249.7,236.7 250.8,238.0 252.1,239.1 253.6,239.9 255.4,240.5 257.5,240.9 259.8,241.0 895.4,241.0 897.7,241.1 899.7,241.5 901.5,242.1 903.1,242.9 904.4,244.0 905.5,245.3 906.3,246.9 906.9,248.7 907.3,250.7 907.4,253.0 907.4,466.0" fill="none" stroke="#444b55" stroke-width="1.5" stroke-linejoin="round"/>
<polygon points="907.4,466.0 902.4,455.0 912.4,455.0" fill="#444b55"/>
<rect x="903.4" y="462.0" width="8.0" height="8.0" rx="0.0" fill="#ffffff" stroke="#8a939e" stroke-width="1.2" stroke-linejoin="round"/>
<polyline points="516.7,190.0 516.7,221.0 516.8,223.3 517.2,225.3 517.8,227.1 518.6,228.7 519.7,230.0 521.0,231.1 522.6,231.9 524.4,232.5 526.4,232.9 528.7,233.0 895.4,233.0 897.7,233.1 899.7,233.5 901.5,234.1 903.1,234.9 904.4,236.0 905.5,237.3 906.3,238.9 906.9,240.7 907.3,242.7 907.4,245.0 907.4,466.0" fill="none" stroke="#444b55" stroke-width="1.5" stroke-linejoin="round"/>
<polygon points="907.4,466.0 902.4,455.0 912.4,455.0" fill="#444b55"/>
<rect x="903.4" y="462.0" width="8.0" height="8.0" rx="0.0" fill="#ffffff" stroke="#8a939e" stroke-width="1.2" stroke-linejoin="round"/>
<polyline points="851.3,190.0 851.3,213.0 851.4,215.3 851.7,217.3 852.3,219.1 853.2,220.7 854.3,222.0 855.6,223.1 857.1,223.9 858.9,224.5 861.0,224.9 863.3,225.0 895.4,225.0 897.7,225.1 899.7,225.5 901.5,226.1 903.1,226.9 904.4,228.0 905.5,229.3 906.3,230.9 906.9,232.7 907.3,234.7 907.4,237.0 907.4,466.0" fill="none" stroke="#444b55" stroke-width="1.5" stroke-linejoin="round"/>
<polygon points="907.4,466.0 902.4,455.0 912.4,455.0" fill="#444b55"/>
<rect x="903.4" y="462.0" width="8.0" height="8.0" rx="0.0" fill="#ffffff" stroke="#8a939e" stroke-width="1.2" stroke-linejoin="round"/>
<polyline points="1001.3,190.0 1001.3,237.0 1001.1,239.3 1000.8,241.3 1000.2,243.1 999.3,244.7 998.3,246.0 996.9,247.1 995.4,247.9 993.6,248.5 991.5,248.9 989.3,249.0 919.4,249.0 917.1,249.1 915.1,249.5 913.3,250.1 911.7,250.9 910.4,252.0 909.3,253.3 908.5,254.9 907.9,256.7 907.5,258.7 907.4,261.0 907.4,466.0" fill="none" stroke="#444b55" stroke-width="1.5" stroke-linejoin="round"/>
<polygon points="907.4,466.0 902.4,455.0 912.4,455.0" fill="#444b55"/>
<rect x="903.4" y="462.0" width="8.0" height="8.0" rx="0.0" fill="#ffffff" stroke="#8a939e" stroke-width="1.2" stroke-linejoin="round"/>
<polyline points="1297.3,190.0 1297.3,245.0 1297.2,247.3 1296.9,249.3 1296.3,251.1 1295.4,252.7 1294.3,254.0 1293.0,255.1 1291.5,255.9 1289.7,256.5 1287.6,256.9 1285.3,257.0 919.4,257.0 917.1,257.1 915.1,257.5 913.3,258.1 911.7,258.9 910.4,260.0 909.3,261.3 908.5,262.9 907.9,264.7 907.5,266.7 907.4,269.0 907.4,466.0" fill="none" stroke="#444b55" stroke-width="1.5" stroke-linejoin="round"/>
<polygon points="907.4,466.0 902.4,455.0 912.4,455.0" fill="#444b55"/>
<rect x="903.4" y="462.0" width="8.0" height="8.0" rx="0.0" fill="#ffffff" stroke="#8a939e" stroke-width="1.2" stroke-linejoin="round"/>
<polyline points="1557.6,190.0 1557.6,253.0 1557.4,255.3 1557.1,257.3 1556.5,259.1 1555.6,260.7 1554.6,262.0 1553.2,263.1 1551.7,263.9 1549.9,264.5 1547.8,264.9 1545.6,265.0 919.4,265.0 917.1,265.1 915.1,265.5 913.3,266.1 911.7,266.9 910.4,268.0 909.3,269.3 908.5,270.9 907.9,272.7 907.5,274.7 907.4,277.0 907.4,466.0" fill="none" stroke="#444b55" stroke-width="1.5" stroke-linejoin="round"/>
<polygon points="907.4,466.0 902.4,455.0 912.4,455.0" fill="#444b55"/>
<rect x="903.4" y="462.0" width="8.0" height="8.0" rx="0.0" fill="#ffffff" stroke="#8a939e" stroke-width="1.2" stroke-linejoin="round"/>
<text x="8.0" y="167.2" font-family="Ubuntu" font-weight="300" font-size="12" text-anchor="start" fill="#8a939e">Build Tooling</text>
<rect x="44.9" y="131.0" width="20.2" height="16.0" rx="3.0" fill="#ffffff"/>
<text x="47.9" y="143.2" font-family="Ubuntu" font-weight="300" font-size="12" text-anchor="start" fill="#222222">[1]</text>
<text x="8.0" y="167.2" font-family="Ubuntu" font-weight="300" font-size="12" text-anchor="start" fill="#8a939e">Build Tooling</text>
<text x="8.0" y="167.2" font-family="Ubuntu" font-weight="300" font-size="12" text-anchor="start" fill="#8a939e">Build Tooling</text>
<text x="1191.6" y="20.2" font-family="Ubuntu" font-weight="300" font-size="12" text-anchor="end" fill="#8a939e">Web UI</text>
<rect x="1015.3" y="32.0" width="20.2" height="16.0" rx="3.0" fill="#ffffff"/>
<text x="1018.3" y="44.2" font-family="Ubuntu" font-weight="300" font-size="12" text-anchor="start" fill="#222222">[2]</text>
<text x="1191.6" y="20.2" font-family="Ubuntu" font-weight="300" font-size="12" text-anchor="end" fill="#8a939e">Web UI</text>
<text x="1191.6" y="20.2" font-family="Ubuntu" font-weight="300" font-size="12" text-anchor="end" fill="#8a939e">Web UI</text>
<text x="1191.6" y="20.2" font-family="Ubuntu" font-weight="300" font-size="12" text-anchor="end" fill="#8a939e">Web UI</text>
<text x="899.4" y="456.2" font-family="Ubuntu" font-weight="300" font-size="12" text-anchor="end" fill="#8a939e">Application Services › [3]</text>
<rect x="549.7" y="222.0" width="55.8" height="16.0" rx="3.0" fill="#ffffff"/>
<text x="552.7" y="234.2" font-family="Ubuntu" font-weight="300" font-size="12" text-anchor="start" fill="#222222">use cases</text>
<text x="899.4" y="456.2" font-family="Ubuntu" font-weight="300" font-size="12" text-anchor="end" fill="#8a939e">Application Services › [3]</text>
<text x="899.4" y="456.2" font-family="Ubuntu" font-weight="300" font-size="12" text-anchor="end" fill="#8a939e">Application Services › [3]</text>
<text x="899.4" y="456.2" font-family="Ubuntu" font-weight="300" font-size="12" text-anchor="end" fill="#8a939e">Application Services › [3]</text>
<text x="899.4" y="456.2" font-family="Ubuntu" font-weight="300" font-size="12" text-anchor="end" fill="#8a939e">Application Services › [3]</text>
<text x="899.4" y="456.2" font-family="Ubuntu" font-weight="300" font-size="12" text-anchor="end" fill="#8a939e">Application Services › [3]</text>
<text x="18.0" y="496.7" font-family="Ubuntu" font-weight="300" font-size="12" text-anchor="start" fill="#666666">Legend</text>
<text x="18.0" y="522.2" font-family="Ubuntu" font-weight="300" font-size="12" text-anchor="start" fill="#222222">[1]</text>
<text x="44.2" y="522.2" font-family="Ubuntu" font-weight="300" font-size="12" text-anchor="start" fill="#222222">provide / require / report (REST, API token)</text>
<text x="18.0" y="539.2" font-family="Ubuntu" font-weight="300" font-size="12" text-anchor="start" fill="#222222">[2]</text>
<text x="44.2" y="539.2" font-family="Ubuntu" font-weight="300" font-size="12" text-anchor="start" fill="#222222">fetch JSON, SSE/WS updates</text>
<text x="18.0" y="556.2" font-family="Ubuntu" font-weight="300" font-size="12" text-anchor="start" fill="#222222">[3]</text>
<text x="44.2" y="556.2" font-family="Ubuntu" font-weight="300" font-size="12" text-anchor="start" fill="#222222">Application Services › Provide, Require, Spec Query, Branches &amp; Reports, Administration, Access Control</text>
</svg>
